<?xml version="1.0" encoding="UTF-8" standalone="no"?>
<svg
   width="23.999651"
   height="23.999336"
   viewBox="0 0 23.999651 23.999336"
   version="1.1"
   id="svg826"
   sodipodi:docname="launch.svg"
   inkscape:version="1.1.1 (c3084ef, 2021-09-22)"
   xmlns:inkscape="http://www.inkscape.org/namespaces/inkscape"
   xmlns:sodipodi="http://sodipodi.sourceforge.net/DTD/sodipodi-0.dtd"
   xmlns="http://www.w3.org/2000/svg"
   xmlns:svg="http://www.w3.org/2000/svg">
  <defs
     id="defs830" />
  <sodipodi:namedview
     id="namedview828"
     pagecolor="#ffffff"
     bordercolor="#666666"
     borderopacity="1.0"
     inkscape:pageshadow="2"
     inkscape:pageopacity="0.0"
     inkscape:pagecheckerboard="0"
     showgrid="false"
     fit-margin-top="0"
     fit-margin-left="0"
     fit-margin-right="0"
     fit-margin-bottom="0"
     inkscape:zoom="29.958333"
     inkscape:cx="2.0194715"
     inkscape:cy="12.400556"
     inkscape:window-width="1312"
     inkscape:window-height="969"
     inkscape:window-x="121"
     inkscape:window-y="79"
     inkscape:window-maximized="0"
     inkscape:current-layer="svg826" />
  <path
     d="m 8.0106514,6.215 c -1.711,-0.009 -3.86,0.918 -5.499,2.557 -0.625,0.625 -1.176,1.355 -1.60100002,2.174 1.47900002,-1.119 3.05700002,-1.47 4.90300002,-0.434 0.544,-1.437 1.27,-2.9 2.197,-4.297 z m 9.7849996,9.773 c -1.516,0.991 -3.007,1.706 -4.297,2.21 1.036,1.848 0.686,3.424 -0.434,4.902 0.819,-0.424 1.549,-0.975 2.175,-1.602 1.644,-1.642 2.572,-3.796 2.556,-5.51 z m 6.152,-15.946 C 23.535651,0.014 23.131651,0 22.734651,0 14.132651,0 9.2366514,6.558 7.4546514,11.833 l 4.7279996,4.729 c 5.428,-1.946 11.817,-6.661 11.817,-15.172 0,-0.439 -0.017,-0.888 -0.052,-1.348 z m -9.888,9.91 c -0.391,-0.391 -0.391,-1.023 0,-1.414 0.391,-0.391 1.023,-0.391 1.414,0 0.391,0.391 0.391,1.023 0,1.414 -0.391,0.391 -1.024,0.39 -1.414,0 z m 2.828,-2.828 c -0.781,-0.78 -0.781,-2.047 0,-2.828 0.781,-0.781 2.048,-0.781 2.828,0 0.781,0.781 0.781,2.047 0,2.828 -0.781,0.781 -2.047,0.781 -2.828,0 z m -8.0209996,8.625 1.013,1.012 c -0.942,0.954 -1.907,2.083 -2.287,3.637 l -1.39,-0.34 c 0.467,-1.912 1.607,-3.24 2.664,-4.309 z m -1.634,-1.633 1.01,1.01 c -1.119,1.103 -2.413,2.203 -4.307,2.666 l -0.34,-1.39 c 1.553,-0.381 2.69,-1.35 3.637,-2.286 z m 2.746,6.446 c 0.2059996,2.029 -0.946,3.265 -2.48,3.421 -0.902,0.092 -1.701,-0.205 -2.356,-0.88 -1.575,0.556 -3.074,-0.047 -3.864,-1.172 -0.62200002,-0.883 -0.76000002,-2.002 -0.38200002,-3.074 -0.676,-0.656 -0.973,-1.448 -0.88,-2.356 0.154,-1.521 1.36100002,-2.694 3.48400002,-2.475 l 0.21,1.208 c -0.716,0.067 -1.379,0.104 -1.809,0.533 -0.722,0.723 -0.504,2.229 0.851,2.629 -0.899,0.904 -0.813,2.202 -0.137,2.914 0.707,0.747 2.057,0.863 2.987,-0.063 0.416,1.41 1.942,1.537 2.629,0.851 0.424,-0.424 0.465,-1.075 0.531,-1.782 z"
     id="path824"
     style="fill:#00fbfb;fill-opacity:1" />
</svg>
