<?xml version="1.0" encoding="UTF-8" standalone="no"?>
<!-- Created with Inkscape (http://www.inkscape.org/) -->

<svg
   width="451.05054mm"
   height="161.6322mm"
   viewBox="0 0 451.05052 161.6322"
   version="1.1"
   id="svg5"
   inkscape:version="1.1.1 (c3084ef, 2021-09-22)"
   sodipodi:docname="logo.svg"
   xmlns:inkscape="http://www.inkscape.org/namespaces/inkscape"
   xmlns:sodipodi="http://sodipodi.sourceforge.net/DTD/sodipodi-0.dtd"
   xmlns:xlink="http://www.w3.org/1999/xlink"
   xmlns="http://www.w3.org/2000/svg"
   xmlns:svg="http://www.w3.org/2000/svg">
  <sodipodi:namedview
     id="namedview7"
     pagecolor="#ffffff"
     bordercolor="#666666"
     borderopacity="1.0"
     inkscape:pageshadow="2"
     inkscape:pageopacity="0.0"
     inkscape:pagecheckerboard="0"
     inkscape:document-units="mm"
     showgrid="false"
     inkscape:zoom="2.0590093"
     inkscape:cx="596.64617"
     inkscape:cy="483.48495"
     inkscape:window-width="1312"
     inkscape:window-height="969"
     inkscape:window-x="1774"
     inkscape:window-y="25"
     inkscape:window-maximized="0"
     inkscape:current-layer="layer4"
     fit-margin-top="0"
     fit-margin-left="0"
     fit-margin-right="0"
     fit-margin-bottom="0"
     inkscape:snap-others="true"
     inkscape:snap-nodes="true" />
  <defs
     id="defs2">
    <linearGradient
       id="linearGradient19453"
       inkscape:swatch="solid">
      <stop
         style="stop-color:#000000;stop-opacity:1;"
         offset="0"
         id="stop19451" />
    </linearGradient>
    <linearGradient
       id="contrast"
       inkscape:swatch="solid">
      <stop
         style="stop-color:#e4e3e3;stop-opacity:1;"
         offset="0"
         id="stop18346" />
    </linearGradient>
    <linearGradient
       id="linearGradient18324"
       inkscape:swatch="solid">
      <stop
         style="stop-color:#6500a8;stop-opacity:1;"
         offset="0"
         id="stop18322" />
    </linearGradient>
    <rect
       x="202.59392"
       y="659.05554"
       width="741.59381"
       height="218.85146"
       id="rect10590" />
    <linearGradient
       id="linearGradient3688"
       inkscape:swatch="solid">
      <stop
         style="stop-color:#000000;stop-opacity:1;"
         offset="0"
         id="stop3686" />
    </linearGradient>
    <linearGradient
       id="linearGradient3682"
       inkscape:swatch="solid">
      <stop
         style="stop-color:#000000;stop-opacity:1;"
         offset="0"
         id="stop3680" />
    </linearGradient>
    <linearGradient
       id="linearGradient3676"
       inkscape:swatch="solid">
      <stop
         style="stop-color:#000000;stop-opacity:1;"
         offset="0"
         id="stop3674" />
    </linearGradient>
    <linearGradient
       id="linearGradient3670"
       inkscape:swatch="solid">
      <stop
         style="stop-color:#000000;stop-opacity:1;"
         offset="0"
         id="stop3668" />
    </linearGradient>
    <linearGradient
       id="linearGradient3664"
       inkscape:swatch="solid">
      <stop
         style="stop-color:#000000;stop-opacity:1;"
         offset="0"
         id="stop3662" />
    </linearGradient>
    <linearGradient
       id="linearGradient3658"
       inkscape:swatch="solid">
      <stop
         style="stop-color:#000000;stop-opacity:1;"
         offset="0"
         id="stop3656" />
    </linearGradient>
    <linearGradient
       id="linearGradient3652"
       inkscape:swatch="solid">
      <stop
         style="stop-color:#000000;stop-opacity:1;"
         offset="0"
         id="stop3650" />
    </linearGradient>
    <linearGradient
       id="linearGradient3646"
       inkscape:swatch="solid">
      <stop
         style="stop-color:#000000;stop-opacity:1;"
         offset="0"
         id="stop3644" />
    </linearGradient>
    <linearGradient
       id="linearGradient3640"
       inkscape:swatch="solid">
      <stop
         style="stop-color:#000000;stop-opacity:1;"
         offset="0"
         id="stop3638" />
    </linearGradient>
    <linearGradient
       id="linearGradient3634"
       inkscape:swatch="solid">
      <stop
         style="stop-color:#000000;stop-opacity:1;"
         offset="0"
         id="stop3632" />
    </linearGradient>
    <linearGradient
       id="linearGradient3556"
       inkscape:swatch="solid">
      <stop
         style="stop-color:#e4e300;stop-opacity:1;"
         offset="0"
         id="stop3554" />
    </linearGradient>
    <linearGradient
       id="linearGradient3492"
       inkscape:swatch="solid">
      <stop
         style="stop-color:#000000;stop-opacity:1;"
         offset="0"
         id="stop3490" />
    </linearGradient>
    <linearGradient
       id="linearGradient3486"
       inkscape:swatch="solid">
      <stop
         style="stop-color:#000000;stop-opacity:1;"
         offset="0"
         id="stop3484" />
    </linearGradient>
    <linearGradient
       id="linearGradient3480"
       inkscape:swatch="solid">
      <stop
         style="stop-color:#000000;stop-opacity:1;"
         offset="0"
         id="stop3478" />
    </linearGradient>
    <linearGradient
       id="linearGradient3474"
       inkscape:swatch="solid">
      <stop
         style="stop-color:#000000;stop-opacity:1;"
         offset="0"
         id="stop3472" />
    </linearGradient>
    <linearGradient
       id="linearGradient3468"
       inkscape:swatch="solid">
      <stop
         style="stop-color:#000000;stop-opacity:1;"
         offset="0"
         id="stop3466" />
    </linearGradient>
    <linearGradient
       id="linearGradient3462"
       inkscape:swatch="solid">
      <stop
         style="stop-color:#000000;stop-opacity:1;"
         offset="0"
         id="stop3460" />
    </linearGradient>
    <linearGradient
       id="linearGradient3456"
       inkscape:swatch="solid">
      <stop
         style="stop-color:#000000;stop-opacity:1;"
         offset="0"
         id="stop3454" />
    </linearGradient>
    <linearGradient
       id="linearGradient3450"
       inkscape:swatch="solid">
      <stop
         style="stop-color:#000000;stop-opacity:1;"
         offset="0"
         id="stop3448" />
    </linearGradient>
    <linearGradient
       id="linearGradient3444"
       inkscape:swatch="solid">
      <stop
         style="stop-color:#000000;stop-opacity:1;"
         offset="0"
         id="stop3442" />
    </linearGradient>
    <linearGradient
       id="linearGradient3438"
       inkscape:swatch="solid">
      <stop
         style="stop-color:#000000;stop-opacity:1;"
         offset="0"
         id="stop3436" />
    </linearGradient>
    <linearGradient
       inkscape:collect="always"
       xlink:href="#contrast"
       id="linearGradient18326"
       x1="3.4205215"
       y1="142.90269"
       x2="451.57999"
       y2="142.90269"
       gradientUnits="userSpaceOnUse" />
    <linearGradient
       inkscape:collect="always"
       xlink:href="#contrast"
       id="linearGradient18350"
       x1="8.1397724"
       y1="156.582"
       x2="219.5416"
       y2="156.582"
       gradientUnits="userSpaceOnUse" />
    <linearGradient
       inkscape:collect="always"
       xlink:href="#linearGradient18324"
       id="linearGradient19455"
       x1="126.67592"
       y1="106.45953"
       x2="136.2579"
       y2="106.45953"
       gradientUnits="userSpaceOnUse" />
    <linearGradient
       inkscape:collect="always"
       xlink:href="#linearGradient18324"
       id="linearGradient19457"
       x1="79.481415"
       y1="86.105125"
       x2="116.08253"
       y2="86.105125"
       gradientUnits="userSpaceOnUse" />
    <linearGradient
       inkscape:collect="always"
       xlink:href="#linearGradient18324"
       id="linearGradient19459"
       x1="79.593925"
       y1="93.456856"
       x2="121.55285"
       y2="93.456856"
       gradientUnits="userSpaceOnUse" />
    <linearGradient
       inkscape:collect="always"
       xlink:href="#linearGradient18324"
       id="linearGradient19461"
       x1="52.005733"
       y1="86.136459"
       x2="91.454399"
       y2="86.136459"
       gradientUnits="userSpaceOnUse" />
    <linearGradient
       inkscape:collect="always"
       xlink:href="#linearGradient18324"
       id="linearGradient19463"
       x1="31.283773"
       y1="90.505913"
       x2="44.493019"
       y2="90.505913"
       gradientUnits="userSpaceOnUse" />
    <linearGradient
       inkscape:collect="always"
       xlink:href="#linearGradient18324"
       id="linearGradient19465"
       x1="20.666758"
       y1="76.156975"
       x2="30.538"
       y2="76.156975"
       gradientUnits="userSpaceOnUse" />
    <linearGradient
       inkscape:collect="always"
       xlink:href="#linearGradient18324"
       id="linearGradient19467"
       x1="20.742092"
       y1="76.688744"
       x2="21.055086"
       y2="76.688744"
       gradientUnits="userSpaceOnUse" />
    <linearGradient
       inkscape:collect="always"
       xlink:href="#linearGradient18324"
       id="linearGradient19469"
       x1="20.742092"
       y1="76.688744"
       x2="21.055086"
       y2="76.688744"
       gradientUnits="userSpaceOnUse" />
  </defs>
  <g
     inkscape:groupmode="layer"
     id="layer4"
     inkscape:label="Final">
    <g
       id="g4098"
       transform="translate(-8.1397724,-75.765895)"
       style="display:inline;fill:url(#linearGradient18350);fill-opacity:1;stroke:none">
      <path
         style="fill:url(#linearGradient18350);fill-opacity:1;stroke:none;stroke-width:0.264583px;stroke-linecap:butt;stroke-linejoin:miter;stroke-opacity:1"
         d="m 73.466361,204.13822 c -0.935879,-1.05287 -1.637787,0.11698 -2.924617,1.75476 -1.28683,1.63779 -4.328432,13.21927 -5.615262,14.38912 -1.286833,1.16984 -1.637787,4.44541 -4.445418,3.39255 -2.807632,-1.05286 0.233971,-5.14732 1.169847,-5.96622 0.935876,-0.81889 3.392554,-9.47575 3.977479,-10.99655 0.584922,-1.5208 1.754769,-2.80763 -0.935879,-3.86049 -2.690646,-1.05287 -2.807632,3.15858 -2.924615,4.91335 -0.116985,1.75477 -0.818893,3.97748 -3.74351,3.0416 -2.924616,-0.93588 -1.754769,-6.0832 -0.584922,-8.30591 1.169845,-2.22271 0,-4.21145 -0.116985,-6.43415 -0.116986,-2.22271 0.350953,-2.45668 0.701907,-3.8605 0.350954,-1.40382 -3.041599,-1.05286 -3.27557,-2.45668 -0.233969,-1.40381 2.807631,-0.93587 3.626524,-3.86049 0.818894,-2.92462 -1.052861,-4.21145 -3.041599,-5.73225 -1.988741,-1.5208 -4.094465,-1.05286 -6.551142,-0.35095 -2.456677,0.7019 -16.026897,11.11354 -18.015635,3.74351 -1.988741,-7.37004 14.623081,-7.48702 16.611819,-9.35878 1.988738,-1.87175 1.988738,-2.80763 2.105724,-5.61526 0,0 0.726922,-0.7347 -0.431167,-1.31374 -1.158089,-0.57905 -2.729781,-0.16545 -3.308826,-1.15809 -0.579044,-0.99265 0.909927,-3.97059 -0.744485,-5.54229 -1.654413,-1.57169 -4.053312,-3.30882 -8.602947,-5.54228 -4.549635,-2.23346 -9.843756,-2.23346 -8.520226,-5.625 1.32353,-3.39155 14.14523,4.38419 15.716922,3.47426 1.571692,-0.90992 4.301473,0.57905 4.384194,-1.07536 0.08272,-1.65442 1.406251,-5.95589 3.226105,-5.79045 1.819854,0.16544 3.88787,2.56434 5.045959,0.99265 1.158089,-1.57169 0.330882,-4.13603 -1.902575,-6.78309 -2.233457,-2.64706 -6.534931,-12.24266 -11.994493,-16.46141 -5.459562,-4.21875 -8.354785,-5.625 -10.753683,-8.68567 -2.398899,-3.06066 -1.406251,-3.2261 -3.308826,-4.05331 -1.902575,-0.82721 -3.474267,-1.07537 -5.542283,-3.14338 -2.068016,-2.06802 -1.902575,-5.37685 -3.060663,-6.53494 C 18.529424,100.1747 8.4375054,92.978 12.738979,89.338292 c 4.301473,-3.639708 11.498169,10.670958 13.483464,10.588242 1.985296,-0.08272 3.80515,-0.08272 5.045959,2.316176 1.24081,2.3989 0.992648,4.54964 3.722429,6.12133 2.729781,1.57169 3.391546,2.72978 5.12868,5.79044 1.737133,3.06067 0.744486,5.2114 2.150736,5.79045 1.406251,0.57904 8.93383,11.74633 11.084566,11.74633 2.150737,0 5.294121,6.45221 9.595595,5.70772 4.301473,-0.74448 4.715076,-0.4136 5.542283,-2.23345 0.827206,-1.81986 -2.316178,-8.02391 -2.398899,-9.26471 -0.08272,-1.24081 -4.549635,-8.76839 -2.647061,-9.34744 1.902575,-0.57904 1.985296,3.55699 2.729782,4.21876 0.744485,0.66176 1.654412,4.38419 2.64706,4.13603 0.992648,-0.24816 5.12868,5.45956 6.369489,4.96324 1.24081,-0.49633 -0.330882,-7.11398 0.165442,-8.68567 0.496324,-1.57169 1.488971,-3.14339 1.075368,-4.46692 -0.413603,-1.32353 -6.121327,-12.8217 -0.744486,-13.15258 5.376842,-0.33088 2.233458,10.4228 3.143385,11.33273 0.909927,0.90993 0.827206,12.90442 4.466914,13.97979 3.639708,1.07537 8.933829,-4.7978 9.01655,-6.20405 0.08272,-1.40625 0.248162,-2.15074 1.654413,-2.3989 1.406251,-0.24816 1.571692,1.32353 2.812502,0.57905 1.240809,-0.74449 2.150736,-1.73714 2.812502,-4.46692 0.661768,-2.72978 0.909928,-12.73898 3.722428,-12.57354 2.8125,0.16545 2.23346,8.02391 0.16544,12.24266 -2.06801,4.21875 -7.693018,8.4375 -5.045957,11.82905 2.647057,3.39155 5.128677,2.31618 6.534927,-0.4136 1.40625,-2.72978 0.24817,-4.3842 2.06802,-5.45956 1.81985,-1.07537 6.61765,-2.48162 6.28677,-0.33089 -0.33088,2.15074 -4.30148,3.39155 -4.46692,6.12133 -0.16544,2.72978 -2.89522,13.56619 -1.32353,14.88972 1.5717,1.32353 7.77574,1.48897 8.18935,-0.16545 0.4136,-1.65441 -1.15809,-4.63235 -0.33089,-5.54228 0.82721,-0.90993 0.90993,1.73713 2.64706,1.9853 1.73714,0.24816 4.96324,-2.06802 5.62501,-3.88787 0,0 9.84375,-5.87317 13.89707,-6.94854 4.05331,-1.07537 6.86581,-5.45956 9.26471,-7.69302 2.3989,-2.23345 12.57353,-5.625 15.71692,-8.52022 3.14338,-2.89523 9.51287,-7.85846 14.88971,-11.33273 5.37685,-3.474268 11.16729,-4.549636 14.22795,-8.106624 3.06067,-3.556987 8.68567,-10.836404 10.67097,-7.279416 1.98529,3.556988 -7.6103,7.610299 -8.60295,8.851109 -0.99265,1.240809 -12.15993,9.347431 -14.55883,11.167291 -2.3989,1.81985 -7.52758,7.27941 -11.00185,8.52022 -3.47426,1.24081 -9.67831,3.22611 -11.74633,4.63236 -2.06801,1.40625 -4.71507,2.64706 -4.71507,3.55698 0,0.90993 1.90257,1.40626 0.74448,2.31618 -1.15809,0.90993 -1.90257,-1.15809 -2.97794,-1.15809 -1.07537,0 -12.32538,8.35479 -15.2206,9.5956 -2.89522,1.24081 -8.0239,5.45956 -9.34743,7.44486 -1.32353,1.98529 -6.28677,6.78309 -9.09927,7.61029 -2.8125,0.82721 -7.36214,1.5717 -6.36949,4.46692 0.99265,2.89522 5.625,1.57169 6.70037,2.48162 1.07537,0.90993 4.46691,1.65441 6.94853,0.74448 2.48162,-0.90992 4.46692,-2.39889 4.63236,-0.74448 0.16544,1.65441 -4.21875,1.57169 -3.88787,2.3989 0.33088,0.8272 0.33088,1.24081 1.98529,0.99264 1.65442,-0.24816 10.25736,-1.48897 9.67832,2.56434 -0.57904,4.05332 -8.93383,0.16545 -10.34008,0.49633 -1.40625,0.33088 -2.64706,-0.4136 -2.89522,1.65441 -0.24816,2.06802 -1.07537,3.97059 -0.33089,4.54964 0.74449,0.57904 1.5717,0.24816 2.06802,2.06801 0.49632,1.81986 -1.07537,2.15074 -0.16544,2.89522 0.90993,0.74449 2.31618,2.81251 6.20405,4.96324 3.88787,2.15074 11.00184,5.54229 14.22795,5.29412 3.2261,-0.24816 4.05331,-2.15073 8.68566,-0.90992 4.63236,1.24081 14.47612,5.79044 13.23531,9.51287 -1.24081,3.72243 -4.88052,2.72978 -8.35479,1.9853 -3.47426,-0.74449 -5.04596,-0.66177 -8.68566,-2.72978 -3.63971,-2.06802 -0.57905,-2.56434 -6.45221,-4.05332 -5.87317,-1.48897 -16.62685,-4.79779 -19.02575,-3.72243 -2.3989,1.07537 -2.89522,2.23346 -4.46692,2.56434 -1.57169,0.33089 -2.31617,-0.8272 -4.05331,2.15074 -1.73713,2.97794 -3.39154,5.54228 -1.98529,7.69302 1.40625,2.15074 14.55883,14.22795 9.92647,17.28861 -4.63235,3.06067 -3.88787,-8.10662 -8.68566,-11.66361 -4.7978,-3.55698 -7.94119,-9.92647 -16.378691,-9.84375 -8.437505,0.0827 -13.897067,5.12868 -15.716921,8.10662 -1.819855,2.97794 -3.970591,2.3989 -3.391547,6.78309 0.579045,4.3842 -0.579044,5.95589 1.488972,8.10663 2.068016,2.15073 13.400744,16.37868 1.571692,22.50001 -11.829052,6.12133 -4.218753,-19.77023 -5.542283,-22.91362 -1.32353,-3.14338 -0.723622,-9.21463 -2.967511,-9.28103 z"
         id="path717" />
      <ellipse
         style="fill:url(#linearGradient18350);fill-opacity:1;stroke:none;stroke-width:0.264583;stroke-opacity:1"
         id="path2735"
         cx="29.77943"
         cy="207.21519"
         rx="6.7830925"
         ry="7.0312543" />
      <ellipse
         style="fill:url(#linearGradient18350);fill-opacity:1;stroke:none;stroke-width:0.264583;stroke-opacity:1"
         id="path2841"
         cx="-38.799313"
         cy="72.750313"
         rx="1.5716921"
         ry="5.7077241"
         transform="rotate(-41.118283)" />
      <ellipse
         style="fill:url(#linearGradient18350);fill-opacity:1;stroke:none;stroke-width:0.264583;stroke-opacity:1"
         id="path2843"
         cx="-28.941078"
         cy="97.619972"
         rx="1.1580889"
         ry="2.8125017"
         transform="rotate(-35.772634)" />
      <ellipse
         style="fill:url(#linearGradient18350);fill-opacity:1;stroke:none;stroke-width:0.264583;stroke-opacity:1"
         id="path2845"
         cx="-30.576807"
         cy="114.67244"
         rx="1.7371334"
         ry="4.3841944"
         transform="rotate(-37.68835)" />
      <ellipse
         style="fill:url(#linearGradient18350);fill-opacity:1;stroke:none;stroke-width:0.264583;stroke-opacity:1"
         id="path2847"
         cx="162.36627"
         cy="20.605974"
         rx="1.3235302"
         ry="3.3088255"
         transform="rotate(37.234836)" />
      <ellipse
         style="fill:url(#linearGradient18350);fill-opacity:1;stroke:none;stroke-width:0.264583;stroke-opacity:1"
         id="path2849"
         cx="10.670962"
         cy="138.88795"
         rx="2.3988984"
         ry="2.5643396" />
      <ellipse
         style="fill:url(#linearGradient18350);fill-opacity:1;stroke:none;stroke-width:0.264583;stroke-opacity:1"
         id="path2851"
         cx="-36.403824"
         cy="186.32518"
         rx="3.7224288"
         ry="1.4889715"
         transform="rotate(-26.702122)" />
      <ellipse
         style="fill:url(#linearGradient18350);fill-opacity:1;stroke:none;stroke-width:0.198042;stroke-opacity:1"
         id="path2853"
         cx="-68.500717"
         cy="216.08469"
         rx="0.85932082"
         ry="2.3109725"
         transform="matrix(0.56912854,-0.82224857,0.74239235,0.66996537,0,0)" />
      <ellipse
         style="fill:url(#linearGradient18350);fill-opacity:1;stroke:none;stroke-width:0.289068;stroke-opacity:1"
         id="path2855"
         cx="259.81326"
         cy="-46.609699"
         rx="2.6470602"
         ry="3.8878701"
         transform="rotate(45.230186)"
         inkscape:transform-center-x="-0.33088256"
         inkscape:transform-center-y="-1.158089" />
    </g>
    <text
       xml:space="preserve"
       style="display:inline;font-style:oblique;font-variant:normal;font-weight:bold;font-stretch:normal;font-size:61.7361px;line-height:1.25;font-family:Helvetica;-inkscape-font-specification:'Helvetica, Bold Oblique';font-variant-ligatures:normal;font-variant-caps:normal;font-variant-numeric:normal;font-variant-east-asian:normal;fill:url(#linearGradient18326);fill-opacity:1;stroke:none;stroke-width:0.264583"
       x="1.8530034"
       y="165.10419"
       id="text16653"
       transform="translate(-0.52947356,-56.574706)"><tspan
         sodipodi:role="line"
         id="tspan16651"
         style="font-style:oblique;font-variant:normal;font-weight:bold;font-stretch:normal;font-size:61.7361px;font-family:Helvetica;-inkscape-font-specification:'Helvetica, Bold Oblique';font-variant-ligatures:normal;font-variant-caps:normal;font-variant-numeric:normal;font-variant-east-asian:normal;fill:url(#linearGradient18326);fill-opacity:1;stroke-width:0.264583"
         x="1.8530034"
         y="165.10419">AVANT-GARDE</tspan></text>
  </g>
  <g
     inkscape:groupmode="layer"
     id="layer3"
     inkscape:label="trace"
     style="display:inline">
    <g
       id="g19595"
       style="stroke:none">
      <circle
         id="path18671"
         style="fill:url(#linearGradient19469);stroke:none;stroke-width:0.264583;fill-opacity:1"
         cx="20.89859"
         cy="76.688744"
         r="0.024205843" />
      <circle
         id="path18673"
         style="fill:url(#linearGradient19467);stroke:none;stroke-width:0.264583;fill-opacity:1"
         cx="20.89859"
         cy="76.688744"
         r="0.024205843" />
      <path
         style="fill:url(#linearGradient19465);stroke:none;stroke-width:0.264583px;stroke-linecap:butt;stroke-linejoin:miter;stroke-opacity:1;fill-opacity:1"
         d="m 20.898591,76.870469 2.36245,-3.997989 c 0,0 2.180722,0.363453 3.99799,1.272088 1.817269,0.908634 3.089357,1.272087 3.089357,1.272087 l -1.998996,3.997992 c 0,0 -3.271083,-1.453817 -4.724898,-1.998996 -1.453815,-0.545182 -2.725903,-0.545182 -2.725903,-0.545182 z"
         id="path18710" />
      <path
         style="fill:url(#linearGradient19463);stroke:none;stroke-width:0.264583px;stroke-linecap:butt;stroke-linejoin:miter;stroke-opacity:1;fill-opacity:1"
         d="m 31.802205,80.868461 -0.363456,-4.906624 c 0,0 2.180725,1.817267 3.452813,1.272088 1.272087,-0.545182 3.997991,0.181726 4.361444,-0.726909 0.363453,-0.908634 0.726908,-2.90763 0.726908,-2.90763 l 4.361445,29.984934 c 0,0 -3.089357,0.18173 -4.906627,1.09036 -1.817269,0.90864 -4.724897,2.54418 -4.724897,2.54418 l -0.545182,-7.269075 c 0,0 5.815261,-0.363456 6.360441,-2.544178 0.545181,-2.180722 1.272087,-3.816263 0.908634,-4.906624 -0.363453,-1.090361 -2.180722,-0.545182 -3.634536,-2.180725 -1.453817,-1.63554 0.181727,-3.634536 -0.545182,-5.08835 -0.726908,-1.453817 -5.451805,-4.361447 -5.451805,-4.361447 z"
         id="path18712" />
      <path
         style="fill:url(#linearGradient19461);stroke:none;stroke-width:0.264583px;stroke-linecap:butt;stroke-linejoin:miter;stroke-opacity:1;fill-opacity:1"
         d="m 52.155616,64.149588 5.633532,44.159632 h 8.722889 L 91.226893,63.967862 81.231916,64.149588 64.513041,97.950789 61.78714,63.967862 Z"
         id="path18714" />
      <path
         style="fill:url(#linearGradient19459);stroke:none;stroke-width:0.264583px;stroke-linecap:butt;stroke-linejoin:miter;stroke-opacity:1;fill-opacity:1"
         d="m 79.596373,108.12749 9.813253,0.18173 4.543171,-8.904617 H 110.8534 l 0.7269,9.086347 0.90864,-0.18173 c 0,0 1.09036,-1.63554 3.45281,-1.81727 2.36245,-0.18173 5.45181,0.90864 5.45181,0.90864 l -0.90864,-6.90563 c 0,0 -4.36144,-3.27108 -4.90662,-4.361441 -0.54519,-1.090361 0.90863,-1.272087 0.36345,-2.725904 -0.54518,-1.453814 -1.81727,-0.908632 -2.36245,-2.180722 -0.54518,-1.272088 -0.36345,-4.361445 1.27209,-5.633532 1.63554,-1.272088 3.45281,-0.363453 3.45281,-0.363453 l -0.54518,-3.271086 c 0,0 -1.999,0.181729 -2.18072,-0.545179 -0.18173,-0.726909 1.99899,-1.272088 1.99899,-1.272088 l -0.18172,-1.635543 c 0,0 -3.27109,1.635543 -5.27008,1.453814 -1.999,-0.181726 -3.63454,-1.090361 -3.63454,-1.090361 l 1.45381,12.90261 H 98.495968 l 6.905622,-13.447789"
         id="path18716"
         sodipodi:nodetypes="ccccccsccssssccsccscccc" />
      <path
         style="fill:url(#linearGradient19457);stroke:none;stroke-width:0.264583px;stroke-linecap:butt;stroke-linejoin:miter;stroke-opacity:1;fill-opacity:1"
         d="m 105.40159,78.324286 c 0,0 -4.36144,-0.181727 -4.17972,-2.544178 0.18173,-2.362449 5.27008,-3.816263 8.54116,-4.543171 3.27109,-0.726908 6.17872,-5.451806 6.17872,-5.451806 l -0.36345,-1.635543 h -8.17771 c 0,0 1.09036,1.635543 -0.36346,2.907631 -1.45381,1.272087 -4.36144,0.545179 -4.36144,0.545179 L 79.596373,108.12749"
         id="path19301" />
      <path
         style="fill:url(#linearGradient19455);stroke:none;stroke-width:0.264583px;stroke-linecap:butt;stroke-linejoin:miter;stroke-opacity:1;fill-opacity:1"
         d="m 136.11343,106.8554 -0.18172,1.81727 h -9.08635 l 1.09036,-4.36144 c 0,0 2.36245,1.27209 4.54317,1.81727 2.18073,0.54518 3.63454,0.7269 3.63454,0.7269 z"
         id="path19416" />
    </g>
  </g>
</svg>
